# xmcd
#
# Track frame offsets:
#	150
#	13275
#	30037
#	51562
#	64800
#	82575
#	96937
#	112837
#	125025
#	142125
#	159525
#	179700
#
# Disc length: 2613 seconds
#
# Revision: 0
# Processed by: cddbd v1.4PL0 Copyright (c) Steve Scherf et al.
# Submitted via: dBpowerAMP V4.0
#
DISCID=a20a330c
DTITLE=The Stevens Sisters - Little By Little
DYEAR=2002
DGENRE=Country
TTITLE0=Little By Little
TTITLE1=Walk On By
TTITLE2=Tuesday's Gone
TTITLE3=Wherever You Are
TTITLE4=Lonesome Wind
TTITLE5=Yours In Tennessee
TTITLE6=Run To The Well
TTITLE7=Love Every Time
TTITLE8=I'll Never Say Goodbye
TTITLE9=Those Words We Said
TTITLE10=If I'm Gonna Be Lonely
TTITLE11=Don't Kneel At My Graveside
EXTD=
EXTT0=
EXTT1=
EXTT2=
EXTT3=
EXTT4=
EXTT5=
EXTT6=
EXTT7=
EXTT8=
EXTT9=
EXTT10=
EXTT11=
PLAYORDER=
